<svg width="24" height="24" viewBox="0 0 24 24" fill="none" xmlns="http://www.w3.org/2000/svg">
<path fill-rule="evenodd" clip-rule="evenodd" d="M14.6067 2.01194C14.5637 2.00426 14.5193 2.00024 14.4741 2.00024C14.4288 2.00024 14.3844 2.00426 14.3414 2.01194H8.08376C5.59646 2.01194 3.49976 4.02977 3.49976 6.49094V17.2039C3.49976 19.8045 5.50435 21.8649 8.08376 21.8649H16.0728C18.5261 21.8649 20.5518 19.703 20.5518 17.2039V8.03794C20.5518 7.84433 20.4769 7.65821 20.3428 7.51854L15.2778 2.24254C15.1364 2.09522 14.941 2.01194 14.7368 2.01194H14.6067ZM13.7241 3.51114L8.08376 3.51194C6.41229 3.51194 4.99976 4.87134 4.99976 6.49094V17.2039C4.99976 18.9852 6.34214 20.3649 8.08376 20.3649H16.0728C17.675 20.3649 19.0518 18.8956 19.0518 17.2039L19.0511 8.98333L18.1756 8.98631C17.842 8.98591 17.4625 8.9852 17.0405 8.98424C15.2709 8.9805 13.8268 7.59353 13.7293 5.84763L13.7241 5.65924V3.51114ZM18.2303 7.48408L17.0438 7.48425C16.0383 7.48212 15.2241 6.6657 15.2241 5.65924V4.35269L18.2303 7.48408ZM14.2841 14.8078C14.6983 14.8078 15.0341 15.1436 15.0341 15.5578C15.0341 15.9375 14.7519 16.2513 14.3858 16.301L14.2841 16.3078H8.88706C8.47284 16.3078 8.13706 15.9721 8.13706 15.5578C8.13706 15.1781 8.41921 14.8644 8.78529 14.8147L8.88706 14.8078H14.2841ZM12.9926 10.6056C12.9926 10.1914 12.6568 9.85564 12.2426 9.85564H8.88656L8.78479 9.86249C8.41871 9.91215 8.13656 10.2259 8.13656 10.6056C8.13656 11.0199 8.47234 11.3556 8.88656 11.3556H12.2426L12.3443 11.3488C12.7104 11.2991 12.9926 10.9853 12.9926 10.6056Z" fill="#200E32"/>
</svg>
