<svg width="56" height="56" viewBox="0 0 56 56" fill="none" xmlns="http://www.w3.org/2000/svg">
<circle cx="28" cy="28" r="28" fill="#FBD5D5"/>
<rect x="12" y="12" width="32" height="32" rx="8" fill="url(#paint0_linear_18939_3910)"/>
<path opacity="0.4" d="M18 22C18 19.7909 19.7909 18 22 18H34C36.2091 18 38 19.7909 38 22V34C38 36.2091 36.2091 38 34 38H22C19.7909 38 18 36.2091 18 34V22Z" fill="white"/>
<path d="M38 23H18V22C18 19.7909 19.7909 18 22 18H34C36.2091 18 38 19.7909 38 22V23Z" fill="white"/>
<path fill-rule="evenodd" clip-rule="evenodd" d="M27.3293 26.6646C27.4563 26.4105 27.716 26.25 28.0001 26.25H33.0001C33.4143 26.25 33.7501 26.5858 33.7501 27C33.7501 27.4142 33.4143 27.75 33.0001 27.75H28.4636L25.6709 33.3354C25.5513 33.5745 25.3135 33.7319 25.0467 33.7486C24.7798 33.7652 24.5243 33.6385 24.376 33.416L22.376 30.416C22.1463 30.0714 22.2394 29.6057 22.584 29.376C22.9287 29.1462 23.3943 29.2393 23.6241 29.584L24.9072 31.5086L27.3293 26.6646Z" fill="white"/>
<path fill-rule="evenodd" clip-rule="evenodd" d="M29.4697 29.4697C29.7626 29.1768 30.2374 29.1768 30.5303 29.4697L31.5 30.4393L32.4697 29.4697C32.7626 29.1768 33.2374 29.1768 33.5303 29.4697C33.8232 29.7626 33.8232 30.2374 33.5303 30.5303L32.5607 31.5L33.5303 32.4697C33.8232 32.7626 33.8232 33.2374 33.5303 33.5303C33.2374 33.8232 32.7626 33.8232 32.4697 33.5303L31.5 32.5607L30.5303 33.5303C30.2374 33.8232 29.7626 33.8232 29.4697 33.5303C29.1768 33.2374 29.1768 32.7626 29.4697 32.4697L30.4393 31.5L29.4697 30.5303C29.1768 30.2374 29.1768 29.7626 29.4697 29.4697Z" fill="white"/>
<defs>
<linearGradient id="paint0_linear_18939_3910" x1="12" y1="12" x2="44" y2="44" gradientUnits="userSpaceOnUse">
<stop stop-color="#FF9D9D"/>
<stop offset="1" stop-color="#F05252"/>
</linearGradient>
</defs>
</svg>
